# xmcd
#
# Track frame offsets: 
#        150
#        25656
#        49881
#        73798
#        92455
#        123388
#        143824
#        170030
#        184122
#        204570
#        222400
#
# Disc length: 3096 seconds
#
# Revision: 0
# Processed by: cddbd v1.5.2PL0 Copyright (c) Steve Scherf et al.
# Submitted via: ExactAudioCopy v1.0b4
#
DISCID=a20c160b
DTITLE=Glen Delpit And The Subterraneans - Lean Times In The Land Of P
DTITLE=len
DYEAR=2010
DGENRE=Blues Rock
TTITLE0=Be Careful If You Stumble
TTITLE1=Sad Excuses
TTITLE2=Writing On The Wall
TTITLE3=When Eight Bells Toll
TTITLE4=Penitentiary Bound
TTITLE5=Down To The River
TTITLE6=Nothin' You Can Do
TTITLE7=Ride On
TTITLE8=Somethings Got A Hold On Me
TTITLE9=Heart Of Stone
TTITLE10=Desperate Man Revisited
EXTD=
EXTT0=
EXTT1=
EXTT2=
EXTT3=
EXTT4=
EXTT5=
EXTT6=
EXTT7=
EXTT8=
EXTT9=
EXTT10=
PLAYORDER=
